<?xml version="1.0" encoding="utf-8"?>
<!-- Generator: Adobe Illustrator 16.0.0, SVG Export Plug-In . SVG Version: 6.00 Build 0)  -->
<!DOCTYPE svg PUBLIC "-//W3C//DTD SVG 1.1//EN" "http://www.w3.org/Graphics/SVG/1.1/DTD/svg11.dtd">
<svg version="1.1" id="Layer_1" xmlns="http://www.w3.org/2000/svg" xmlns:xlink="http://www.w3.org/1999/xlink" x="0px" y="0px"
	 viewBox="0 0 300 300" enable-background="new 0 0 300 300" xml:space="preserve">
<g>
	<path fill="#F88521" d="M47.81,63.19c0.72-3.33,1.59-6.62,2.64-9.84l3.71-11.47c5.44-4.81,11.24-9.21,17.36-13.16
		c-0.62,4.47-0.98,8.95-1.12,13.41C62.15,48.2,54.56,55.25,47.81,63.19z"/>
	<path fill="#F88521" d="M50.19,115.08c0.41-1.16,0.83-2.32,1.28-3.48C56.74,98.07,64.49,86.24,74,76.43
		c-1.57-6.4-2.65-12.94-3.21-19.55c-9.8,8.32-18.37,18.26-25.26,29.63C45.7,96.4,47.31,105.99,50.19,115.08z"/>
	<path fill="#F88521" d="M22.2,109.52c-2.51-3.69-4.85-7.53-6.97-11.51c-2.63,6.79-4.73,13.76-6.31,20.85l3.74,11.46
		c1.05,3.23,2.27,6.4,3.65,9.52C17.1,129.45,19.09,119.28,22.2,109.52z"/>
	<path fill="#F88521" d="M48.72,180.42c-0.35-1.18-0.7-2.37-1.01-3.57c-3.69-14.04-4.36-28.17-2.44-41.7
		c-5.03-4.26-9.75-8.91-14.09-13.93c-3.04,12.49-4.12,25.58-3.02,38.83C34.11,167.94,41.06,174.75,48.72,180.42z"/>
	<path fill="#F88521" d="M22.81,192.37c-4.2-1.51-8.35-3.24-12.41-5.21c1.87,7.03,4.26,13.91,7.15,20.57l9.76,7.07
		c2.74,1.99,5.6,3.84,8.55,5.55C30.4,211.49,26.04,202.09,22.81,192.37z"/>
	<path fill="#F88521" d="M85.94,234.14c-0.98-0.75-1.95-1.51-2.91-2.29c-11.24-9.2-20.09-20.22-26.48-32.3
		c-6.57-0.49-13.12-1.47-19.59-2.98c4.89,11.89,11.7,23.12,20.38,33.18C66.79,232.63,76.42,234.06,85.94,234.14z"/>
	<path fill="#F88521" d="M72.01,259.04c-4.29,1.25-8.66,2.28-13.1,3.07c5.64,4.6,11.62,8.75,17.88,12.44l12.05-0.01
		c3.39,0,6.79-0.19,10.18-0.53C89.39,270.05,80.33,265,72.01,259.04z"/>
	<path fill="#F88521" d="M147.63,255.72c-1.23-0.03-2.47-0.07-3.71-0.14c-14.5-0.83-28.14-4.55-40.41-10.56
		c-5.6,3.47-11.48,6.52-17.6,9.1c10.94,6.75,23.05,11.83,35.99,14.86C131.25,265.76,139.88,261.26,147.63,255.72z"/>
	<path fill="#F88521" d="M150.99,284.05c-2.74,3.53-5.66,6.94-8.79,10.19c7.27,0.4,14.55,0.25,21.78-0.45l9.75-7.1
		c2.74-1.99,5.38-4.14,7.92-6.41C171.53,282.75,161.24,283.99,150.99,284.05z"/>
	<path fill="#F88521" d="M210.22,236.92c-1.01,0.7-2.04,1.39-3.08,2.06c-12.22,7.85-25.44,12.86-38.9,15.21
		c-2.49,6.1-5.46,12.02-8.89,17.7c12.82-0.97,25.6-3.98,37.86-9.13C202.88,254.67,207.21,245.96,210.22,236.92z"/>
	<path fill="#F88521" d="M229.6,257.87c-0.14,4.46-0.5,8.94-1.12,13.41c6.11-3.95,11.92-8.35,17.36-13.16l3.71-11.47
		c1.04-3.22,1.92-6.51,2.64-9.84C245.44,244.74,237.85,251.79,229.6,257.87z"/>
	<path fill="#F88521" d="M249.81,184.92c-0.41,1.16-0.83,2.32-1.28,3.48c-5.28,13.53-13.03,25.36-22.53,35.17
		c1.57,6.4,2.65,12.94,3.21,19.55c9.79-8.32,18.37-18.27,25.26-29.64C254.3,203.6,252.69,194,249.81,184.92z"/>
	<path fill="#F88521" d="M277.8,190.48c2.51,3.69,4.85,7.53,6.97,11.51c2.63-6.79,4.74-13.76,6.31-20.85l-3.74-11.46
		c-1.05-3.22-2.27-6.4-3.65-9.51C282.91,170.55,280.9,180.72,277.8,190.48z"/>
	<path fill="#F88521" d="M251.28,119.58c0.35,1.18,0.69,2.37,1.01,3.57c3.69,14.05,4.37,28.17,2.44,41.7
		c5.03,4.26,9.75,8.91,14.09,13.93c3.03-12.49,4.13-25.58,3.02-38.83C265.89,132.05,258.94,125.24,251.28,119.58z"/>
	<path fill="#F88521" d="M277.19,107.63c4.2,1.51,8.34,3.24,12.41,5.21c-1.87-7.04-4.26-13.91-7.15-20.58l-9.76-7.08
		c-2.74-1.99-5.6-3.84-8.55-5.55C269.6,88.51,273.96,97.91,277.19,107.63z"/>
	<path fill="#F88521" d="M214.06,65.86c0.98,0.75,1.95,1.51,2.91,2.29c11.24,9.19,20.09,20.22,26.49,32.3
		c6.57,0.49,13.12,1.47,19.58,2.98c-4.89-11.88-11.7-23.11-20.38-33.18C233.21,67.37,223.58,65.94,214.06,65.86z"/>
	<path fill="#F88521" d="M227.99,40.96c4.29-1.25,8.66-2.28,13.1-3.08c-5.64-4.59-11.62-8.75-17.88-12.44l-12.05,0.01
		c-3.39,0-6.79,0.18-10.18,0.53C210.61,29.95,219.66,34.99,227.99,40.96z"/>
	<path fill="#F88521" d="M152.37,44.28c1.23,0.03,2.47,0.07,3.71,0.14c14.5,0.83,28.14,4.55,40.41,10.56
		c5.6-3.47,11.48-6.52,17.6-9.1c-10.94-6.74-23.05-11.82-35.99-14.87C168.75,34.24,160.12,38.74,152.37,44.28z"/>
	<path fill="#F88521" d="M149.01,15.94c2.74-3.53,5.66-6.94,8.79-10.19c-7.27-0.4-14.55-0.25-21.78,0.44l-9.75,7.1
		c-2.74,1.99-5.38,4.14-7.92,6.41C128.47,17.25,138.76,16.01,149.01,15.94z"/>
	<path fill="#F88521" d="M89.78,63.08c1.01-0.7,2.04-1.39,3.08-2.06c12.22-7.84,25.44-12.86,38.9-15.21
		c2.49-6.1,5.46-12.03,8.89-17.7c-12.81,0.97-25.6,3.98-37.86,9.13C97.12,45.33,92.79,54.04,89.78,63.08z"/>
	<path fill="#F88521" d="M243.15,156.13c-3.71-2.48-7.55-4.76-11.5-6.85c0.01,0.69,7.28,11.83,10.23,17.17
		c-1.06,5.85-2.68,11.69-4.92,17.44c-3.75,9.63-8.94,18.29-15.2,25.82c-1.54-4.18-3.32-8.27-5.29-12.26
		c-0.39,0.55-1.05,13.81-1.8,19.87c-4.29,4.11-9.04,7.88-14.23,11.21c-8.7,5.59-17.98,9.55-27.48,11.95
		c1.21-4.3,2.2-8.66,2.96-13.06c-0.64,0.22-8.99,10.58-13.17,15.05c-5.89,0.8-11.94,1.06-18.1,0.71
		c-10.32-0.6-20.15-2.85-29.26-6.48c3.51-2.76,6.87-5.71,10.07-8.83c-0.65-0.21-13.5,3.27-19.5,4.43
		c-5.24-2.81-10.29-6.16-15.06-10.07c-8-6.55-14.63-14.15-19.86-22.44c4.46-0.17,8.9-0.61,13.32-1.25
		c-0.4-0.54-12.83-5.27-18.36-7.85c-2.59-5.35-4.7-11.03-6.27-17c-2.63-10-3.52-20.05-2.88-29.82c3.71,2.48,7.55,4.76,11.5,6.84
		c-0.01-0.69-7.28-11.83-10.23-17.17c1.05-5.85,2.68-11.69,4.92-17.44c3.76-9.63,8.94-18.29,15.2-25.82
		c1.54,4.18,3.32,8.26,5.29,12.26c0.39-0.55,1.05-13.81,1.8-19.87c4.29-4.11,9.04-7.88,14.23-11.21c8.7-5.59,17.98-9.54,27.48-11.95
		c-1.21,4.3-2.2,8.66-2.96,13.06c0.64-0.21,9-10.58,13.17-15.05c5.89-0.8,11.94-1.06,18.1-0.71c10.32,0.59,20.16,2.85,29.25,6.48
		c-3.51,2.76-6.87,5.71-10.07,8.83c0.65,0.21,13.5-3.27,19.5-4.43c5.24,2.81,10.29,6.16,15.06,10.07c8,6.55,14.63,14.15,19.86,22.44
		c-4.46,0.17-8.9,0.61-13.32,1.25c0.4,0.54,12.83,5.27,18.36,7.85c2.58,5.35,4.7,11.03,6.27,17
		C242.9,136.3,243.79,146.35,243.15,156.13z"/>
	<circle fill="#FFDA33" cx="150" cy="150" r="72.41"/>
</g>
</svg>
