<?xml version="1.0" encoding="utf-8"?>
<!-- Generator: Adobe Illustrator 16.0.0, SVG Export Plug-In . SVG Version: 6.00 Build 0)  -->
<!DOCTYPE svg PUBLIC "-//W3C//DTD SVG 1.1//EN" "http://www.w3.org/Graphics/SVG/1.1/DTD/svg11.dtd">
<svg version="1.1" id="Layer_1" xmlns="http://www.w3.org/2000/svg" xmlns:xlink="http://www.w3.org/1999/xlink" x="0px" y="0px"
	 width="600px" height="600px" viewBox="0 0 600 600" enable-background="new 0 0 600 600" xml:space="preserve">
<g>
	<path fill="#FFFFFF" d="M433.13,48.87c0-32.11-12.3-48.87-53.94-48.87c-30.51,0-30.09,10.53-78.89,10.53
		C251.5,10.53,251.92,0,221.41,0c-41.64,0-53.94,16.76-53.94,48.87c0,32.11,38.54,45.55,38.54,89.23c0,0-0.93,47.61-7.67,62.64
		C227,190.1,264.52,183.4,300.3,183.4s73.3,6.71,101.96,17.35c-6.74-15.03-7.67-62.64-7.67-62.64
		C394.59,94.43,433.13,80.98,433.13,48.87z"/>
	<path fill="#FFFFFF" d="M300.3,414.39c86.69,0,156.97-51.5,156.97-115.03c0-29.96-15.65-57.25-41.27-77.72
		c-30.77-15.01-71.28-23.81-115.7-23.81c-44.42,0-84.93,8.81-115.7,23.81c-25.62,20.47-41.27,47.75-41.27,77.72
		C143.33,362.9,213.61,414.39,300.3,414.39z"/>
	<path fill="#FFFFFF" d="M571.41,377.15c-12.3-22.34-54.13-27.82-93.42-12.26c-33.69,13.34-54.56,37.82-52.09,58.6L300,471.2
		l-125.89-47.71c2.47-20.78-18.41-45.26-52.09-58.6c-39.3-15.57-81.13-10.08-93.42,12.26c-12.3,22.33,9.58,53.05,48.88,68.62
		c30.51,12.08,62.54,11.46,81.1,0.14l93.68,43.39L83.67,553.19c-4.39,1.73-2.53,12.98-1.08,15.63l11.84,21.58
		c1.45,2.65,10.44,11.09,14.83,9.37L300,511.42l190.74,88.35c4.39,1.73,13.38-6.72,14.83-9.37l11.84-21.58
		c1.45-2.65,3.31-13.9-1.08-15.63L347.75,489.3l93.68-43.39c18.56,11.32,50.59,11.94,81.1-0.14
		C561.82,430.2,583.71,399.48,571.41,377.15z"/>
</g>
</svg>
