<?xml version="1.0" encoding="utf-8"?>
<!-- Generator: Adobe Illustrator 16.0.0, SVG Export Plug-In . SVG Version: 6.00 Build 0)  -->
<!DOCTYPE svg PUBLIC "-//W3C//DTD SVG 1.1//EN" "http://www.w3.org/Graphics/SVG/1.1/DTD/svg11.dtd">
<svg version="1.1" id="Layer_1" xmlns="http://www.w3.org/2000/svg" xmlns:xlink="http://www.w3.org/1999/xlink" x="0px" y="0px"
	 width="100px" height="100px" viewBox="0 0 100 100" enable-background="new 0 0 100 100" xml:space="preserve">
<path d="M92.17,67.54c-1.27,1.17-8.6,7.26-21.81,18.13c1.06-1.71,1.86-3.46,2.42-5.15c8.39-6.91,16.44-13.57,17.74-14.77
	c2.65-2.45-0.7-7.6-4.73-5.6c-4.03,2-6.29,3.41-9.29,5.27c-3,1.86-3.34,0.44-2.99-0.45c0.35-0.89,14.09-35.73,15.54-39.31
	c1.45-3.57-5.02-9.99-7.97-2.38c-3.39,8.77-7.56,20.23-8.75,23.18c-1.87,4.62-4.92,2.8-3.76-0.03c1.15-2.81,9.97-24.7,12.9-32.58
	c2.41-6.48-5.36-8.81-7.34-3.44c-1.76,4.77-7.81,21.06-11.25,29.89c-0.6-1.6-1.2-3.18-1.79-4.72c2.4-6.17,5.67-14.58,7.59-19.77
	c2.86-7.71-5.2-8.67-7.47-2.85c-0.72,1.84-2.5,6.72-4.35,11.79c-0.5-1.27-0.85-2.12-1.28-3.19c-0.12-0.3,3.12-8.87,3.36-9.48
	c1.26-3.22,4.04-5.3,7.08-5.3c1.9,0,3.58,0.86,4.62,2.35c0.29,0.42,0.58,0.95,0.78,1.59c0.15-0.42,0.29-0.8,0.42-1.14
	C72.88,6.75,75.26,5,78.05,5c2.07,0,4,1,5.16,2.68c1.33,1.91,1.52,4.41,0.54,7.03c-0.32,0.87-0.72,1.92-1.17,3.09
	c0.87-0.41,1.68-0.51,2.29-0.51c2.09,0,4.15,1.22,5.52,3.25c1.32,1.96,1.66,4.22,0.91,6.05c-1.18,2.9-10.38,26.22-14.04,35.5
	c2.13-1.3,4.25-2.52,7.44-4.11c0.95-0.47,1.93-0.71,2.92-0.71c2.54,0,4.89,1.65,5.86,4.11C94.35,63.62,93.85,65.98,92.17,67.54z
	 M71.39,74.51c0-6-16.53-49.01-20.42-57.64c-3.05-6.77-9.83-1.53-7.17,3.82c1.58,3.18,6.25,15.25,7.53,19.23
	c0.81,2.54-1.91,5.32-3.79,0.53c-1.17-2.97-8.14-22.67-9.77-26.9c-2.34-6.06-10.71-5.1-7.78,2.92c2.93,8.02,8.91,23.43,10.5,27.61
	c1.32,3.48-1.92,4.63-3.39,0.94c-3.09-7.79-10.72-28.59-12.75-34.18c-2.03-5.59-10.12-3.21-7.64,3.54
	c3.01,8.19,12.07,30.98,13.26,33.91c1.19,2.94-1.99,4.81-3.91,0.01c-1.23-3.07-5.5-14.99-8.99-24.12c-3.03-7.92-9.78-1.28-8.29,2.44
	c1.49,3.72,15.61,39.98,15.97,40.91c0.36,0.93,0,2.41-3.11,0.46c-3.11-1.95-5.45-3.42-9.63-5.52c-4.18-2.1-7.68,3.23-4.94,5.79
	c1.9,1.77,17.78,14.96,28.87,24.14c3.02,2.5,11.98,3.03,16.37,2.29C66.52,92.28,71.39,80.52,71.39,74.51z"/>
</svg>
