<?xml version="1.0" encoding="utf-8"?>
<!-- Generator: Adobe Illustrator 16.0.0, SVG Export Plug-In . SVG Version: 6.00 Build 0)  -->
<!DOCTYPE svg PUBLIC "-//W3C//DTD SVG 1.1//EN" "http://www.w3.org/Graphics/SVG/1.1/DTD/svg11.dtd">
<svg version="1.1" id="Layer_1" xmlns="http://www.w3.org/2000/svg" xmlns:xlink="http://www.w3.org/1999/xlink" x="0px" y="0px"
	 width="100px" height="100px" viewBox="0 0 100 100" enable-background="new 0 0 100 100" xml:space="preserve">
<path d="M76.56,73.72C86.28,66.9,92.5,56.44,92.5,44.68C92.5,24.15,73.48,7.5,50,7.5S7.5,24.15,7.5,44.68
	c0,11.74,6.22,22.21,15.94,29.03c0,0.07,0,0.12,0,0.19v10.63c0,4.4,3.57,7.97,7.97,7.97h7.97v-7.97c0-1.46,1.2-2.65,2.65-2.65
	c1.46,0,2.65,1.2,2.65,2.65v7.97h10.63v-7.97c0-1.46,1.19-2.65,2.65-2.65c1.46,0,2.65,1.2,2.65,2.65v7.97h7.97
	c4.4,0,7.97-3.57,7.97-7.97V73.9C76.56,73.84,76.56,73.79,76.56,73.72z M77.3,51.38l-11.37,8.41l-11.37-8.41l3.57-13.61h15.59
	L77.3,51.38z M45.43,51.38l-11.37,8.41l-11.37-8.41l3.57-13.61h15.59L45.43,51.38z"/>
</svg>
