<?xml version="1.0" encoding="utf-8"?>
<!-- Generator: Adobe Illustrator 16.0.0, SVG Export Plug-In . SVG Version: 6.00 Build 0)  -->
<!DOCTYPE svg PUBLIC "-//W3C//DTD SVG 1.1//EN" "http://www.w3.org/Graphics/SVG/1.1/DTD/svg11.dtd">
<svg version="1.1" id="Layer_1" xmlns="http://www.w3.org/2000/svg" xmlns:xlink="http://www.w3.org/1999/xlink" x="0px" y="0px"
	 width="100px" height="100px" viewBox="0 0 100 100" enable-background="new 0 0 100 100" xml:space="preserve">
<path d="M95,37.94l-6.3-3.62l4.24-5.9l-7.01,1.9l-1.17-7.17l-3.62,6.3l-5.9-4.24l1.65,6.11c-3.6-1.16-6.85-3.46-6.54-5.98
	c0.62-5.02-0.08-8.71-2.08-10.98c-1.42-1.6-3.41-2.42-5.91-2.42c-5.88,0-7.97,4.13-7.97,8c0,0.75,0.11,1.53,0.22,2.36
	c0.3,2.14,0.42,3.76-0.38,5.03l-4.7-3.01l-3.15,2.74c-3.15-1.07-6.53-1.66-10.04-1.66C19.02,25.4,5,39.43,5,56.73
	c0,17.3,14.02,31.33,31.33,31.33c17.3,0,31.33-14.03,31.33-31.33c0-7.52-2.65-14.41-7.06-19.81l0.61-5.11l-4.47-2.87
	c1.46-2.29,1.09-4.97,0.81-7.04c-0.1-0.72-0.2-1.41-0.2-1.95c0-3.35,1.69-5.04,5.02-5.04c1.64,0,2.85,0.46,3.7,1.42
	c0.97,1.1,2,3.5,1.37,8.66C67,28.37,69.58,31.13,73,32.9l-3.04,0.5l6.3,3.62l-4.24,5.9l7.01-1.9l1.17,7.17l3.62-6.3l5.9,4.24
	l-1.9-7.01L95,37.94z M11.9,50.92c0-7.66,9.42-23.65,26.49-21.47C22.94,32.81,15,43.56,11.9,50.92z"/>
</svg>
