<?xml version="1.0" encoding="utf-8"?>
<!-- Generator: Adobe Illustrator 16.0.0, SVG Export Plug-In . SVG Version: 6.00 Build 0)  -->
<!DOCTYPE svg PUBLIC "-//W3C//DTD SVG 1.1//EN" "http://www.w3.org/Graphics/SVG/1.1/DTD/svg11.dtd">
<svg version="1.1" id="Layer_1" xmlns="http://www.w3.org/2000/svg" xmlns:xlink="http://www.w3.org/1999/xlink" x="0px" y="0px"
	 width="100px" height="100px" viewBox="0 0 100 100" enable-background="new 0 0 100 100" xml:space="preserve">
<path d="M97.34,72.3L77.72,54l7.52-6.18l-7.52-7.4l8.71-12.39l-15.49,0.89l6.05-23.75L59.42,22.13l-7.24-9.59L46,22.13L29.26,7.38
	l5.38,21.39l-10.62,2.51l3.39,9.15l-25.08,7.4l25.38,6.62l-7.08,10.77l14.02,0.15L24.6,95.17l21.54-22.43l6.57,22.43l7.15-22.72
	l11.07,6.34l-0.29-13.43L97.34,72.3z M52.72,70.45c-12.96,0-23.46-10.5-23.46-23.46s10.5-23.46,23.46-23.46s23.46,10.5,23.46,23.46
	S65.67,70.45,52.72,70.45z M68.14,41.51l1.48-6.38h3.34c-0.5-0.85-1.05-1.66-1.64-2.43l-1.76,0.47c0,0-1.65-2.18-3.98-3.87
	c-2.34-1.7-4.92-2.59-4.92-2.59l-0.1-1.82c-0.84-0.3-1.7-0.55-2.57-0.75l0.98,2.67l-6.41,4.11l-6.4-4.11l0.96-2.6
	c-0.76,0.19-1.51,0.41-2.24,0.67l-0.1,1.82c0,0-2.58,0.89-4.91,2.59c-2.34,1.7-3.98,3.87-3.98,3.87l-1.76-0.47
	c-0.6,0.77-1.14,1.59-1.64,2.43h3.33l1.48,6.38l-4.84,4.81l-3.05-1.97c-0.1,0.87-0.15,1.75-0.15,2.64c0,0.21,0.01,0.42,0.02,0.63
	l1.7,0.65c0,0,0.05,2.73,0.95,5.48c0.89,2.75,2.45,4.99,2.45,4.99l-0.99,1.53c0.54,0.78,1.12,1.53,1.75,2.24L36.15,59l7.54,0.67
	l2.64,6.85l-3.12,1.92c0.92,0.41,1.88,0.76,2.86,1.05l1.15-1.42c0,0,2.61,0.79,5.5,0.79c2.89,0,5.5-0.79,5.5-0.79l1.15,1.42
	c0.98-0.29,1.93-0.64,2.86-1.05l-3.12-1.92l2.64-6.85L69.29,59l1.02,3.51c0.63-0.71,1.21-1.46,1.75-2.24l-0.99-1.53
	c0,0,1.56-2.24,2.45-4.99c0.89-2.75,0.95-5.48,0.95-5.48l1.7-0.65c0.01-0.21,0.02-0.42,0.02-0.63c0-0.89-0.05-1.77-0.15-2.64
	l-3.05,1.96L68.14,41.51z M60.53,28.28c1.66,0.27,6.83,3.96,7.4,5.74l-1.48,7.4l-5.41,1.86l-7.27-4.96l-0.04-5.58L60.53,28.28z
	 M52.72,40.06l6.9,5.11l-2.17,8.26h-9.47l-2.17-8.26L52.72,40.06z M44.9,28.28l6.8,4.45l-0.04,5.58l-7.27,4.96l-5.41-1.86l-1.48-7.4
	C38.07,32.24,43.25,28.56,44.9,28.28z M35.42,57.11c-1.23-0.75-2.93-7.04-2.73-8.33l5.86-5.5l5.3,1.76l2.17,9.64l-2.28,3.34
	L35.42,57.11z M56.9,66.85c-0.34,0.2-2.57,0.43-4.18,0.43c-1.61,0-3.85-0.23-4.19-0.43l-3.13-7.76L47.5,56h10.42l2.11,3.09
	L56.9,66.85z M70.01,57.11l-8.32,0.92l-2.28-3.34l2.17-9.64l5.3-1.76l5.86,5.5C72.94,50.07,71.23,56.36,70.01,57.11z"/>
</svg>
