<?xml version="1.0" encoding="utf-8"?>
<!-- Generator: Adobe Illustrator 16.0.0, SVG Export Plug-In . SVG Version: 6.00 Build 0)  -->
<!DOCTYPE svg PUBLIC "-//W3C//DTD SVG 1.1//EN" "http://www.w3.org/Graphics/SVG/1.1/DTD/svg11.dtd">
<svg version="1.1" id="Layer_1" xmlns="http://www.w3.org/2000/svg" xmlns:xlink="http://www.w3.org/1999/xlink" x="0px" y="0px"
	 width="100px" height="100px" viewBox="0 0 100 100" enable-background="new 0 0 100 100" xml:space="preserve">
<g>
	<polygon points="43.36,71.14 56.64,71.14 59.68,59.56 50,52.4 40.32,59.56 	"/>
	<path d="M42.7,74.74l-2.95,4.33l4.39,10.88c0.48,0.28,3.61,0.6,5.87,0.6c2.26,0,5.39-0.32,5.87-0.6l4.39-10.88l-2.95-4.33H42.7z"/>
	<path d="M69.85,56.91l-7.43,2.47L59.39,72.9l3.19,4.68l11.66-1.29c1.72-1.06,4.1-9.87,3.83-11.67L69.85,56.91z"/>
	<path d="M61.66,56.91l7.58-2.61l2.08-10.37c-0.79-2.5-8.05-7.67-10.37-8.05l-9.54,6.24l0.05,7.83L61.66,56.91z"/>
	<path d="M38.34,56.91l10.19-6.96l0.05-7.83l-9.54-6.24c-2.32,0.38-9.57,5.55-10.37,8.05l2.08,10.37L38.34,56.91z"/>
	<path d="M37.58,59.38l-7.43-2.47l-8.22,7.71c-0.28,1.81,2.11,10.62,3.83,11.67l11.67,1.29l3.19-4.68L37.58,59.38z"/>
	<path d="M49.79,39.58l8.98-5.77l-1.38-3.75c-2.38-0.55-4.85-0.84-7.39-0.84c-2.71,0-5.33,0.33-7.85,0.95l-1.34,3.64L49.79,39.58z"
		/>
	<path d="M62.65,79.88l-3.7,9.6l4.37,2.7c4.36-1.93,8.22-4.79,11.33-8.32l-1.43-4.92L62.65,79.88z"/>
	<path d="M73.7,45.49l-2.08,8.94l6.78,6.74l4.28-2.75c-0.52-4.68-2.03-9.05-4.3-12.93H73.7z"/>
	<path d="M28.38,54.43l-2.08-8.94h-4.68c-2.27,3.87-3.78,8.25-4.3,12.93l4.28,2.75L28.38,54.43z"/>
	<path d="M37.35,79.88l-10.58-0.94l-1.43,4.92c3.11,3.53,6.97,6.38,11.33,8.32l4.37-2.7L37.35,79.88z"/>
	<path d="M50,92.77c-4.05,0-7.71-1.11-7.71-1.11l-1.61,1.99C43.63,94.52,46.76,95,50,95s6.37-0.48,9.32-1.35l-1.61-1.99
		C57.71,91.66,54.05,92.77,50,92.77z"/>
	<path d="M79.16,71.59c-1.25,3.85-3.44,6.99-3.44,6.99l1.39,2.14c3.48-5.07,5.58-11.16,5.75-17.73l-2.38,0.91
		C80.49,63.91,80.41,67.74,79.16,71.59z"/>
	<path d="M68.02,37.31c3.28,2.38,5.59,5.43,5.59,5.43l2.47-0.66C72.24,37.1,67.03,33.25,61,31.11l0.14,2.56
		C61.13,33.67,64.75,34.93,68.02,37.31z"/>
	<path d="M31.98,37.31c3.28-2.38,6.89-3.63,6.89-3.63L39,31.11c-6.03,2.14-11.25,5.99-15.08,10.96l2.47,0.66
		C26.39,42.74,28.7,39.69,31.98,37.31z"/>
	<path d="M20.84,71.59c-1.25-3.85-1.33-7.68-1.33-7.68L17.13,63c0.17,6.57,2.27,12.66,5.75,17.73l1.39-2.14
		C24.28,78.58,22.09,75.44,20.84,71.59z"/>
	<path d="M48.8,5c-17.04,0-30.85,4.12-30.85,9.19c0,5.08,13.81,9.19,30.85,9.19c17.04,0,30.85-4.12,30.85-9.19
		C79.65,9.12,65.84,5,48.8,5z M48.8,21.59c-12.85,0-23.27-3.31-23.27-7.4c0-4.09,10.42-7.4,23.27-7.4s23.27,3.31,23.27,7.4
		C72.08,18.28,61.66,21.59,48.8,21.59z"/>
</g>
</svg>
