<?xml version="1.0" encoding="utf-8"?>
<!-- Generator: Adobe Illustrator 16.0.0, SVG Export Plug-In . SVG Version: 6.00 Build 0)  -->
<!DOCTYPE svg PUBLIC "-//W3C//DTD SVG 1.1//EN" "http://www.w3.org/Graphics/SVG/1.1/DTD/svg11.dtd">
<svg version="1.1" id="Layer_1" xmlns="http://www.w3.org/2000/svg" xmlns:xlink="http://www.w3.org/1999/xlink" x="0px" y="0px"
	 width="100px" height="100px" viewBox="0 0 100 100" enable-background="new 0 0 100 100" xml:space="preserve">
<path d="M36.76,46.51L50,36.71l13.24,9.8l-4.16,15.85H40.92L36.76,46.51z M40,67.27l-4.04,5.93l6.01,14.89
	c0.65,0.38,4.93,0.82,8.03,0.82s7.38-0.44,8.03-0.82l6.01-14.89L60,67.27H40z M77.16,42.88L67,46.26l-4.16,18.49l4.37,6.41
	l15.96-1.76c2.35-1.45,5.62-13.5,5.23-15.97L77.16,42.88z M65.95,42.88l10.37-3.57l2.85-14.19c-1.08-3.42-11.01-10.49-14.18-11.01
	l-13.05,8.54l0.07,10.71L65.95,42.88z M34.05,42.88l13.94-9.52l0.07-10.71l-13.05-8.54c-3.17,0.52-13.1,7.59-14.18,11.01l2.85,14.19
	L34.05,42.88z M33,46.26l-10.16-3.38L11.6,53.43c-0.38,2.47,2.88,14.53,5.23,15.97l15.96,1.76l4.37-6.41L33,46.26z M49.71,19.17
	L62,11.28l-1.88-5.13C56.86,5.41,53.48,5,50,5c-3.7,0-7.3,0.46-10.74,1.3l-1.83,4.98L49.71,19.17z M67.31,74.31l-5.06,13.13
	l5.98,3.69c5.96-2.65,11.24-6.55,15.5-11.38l-1.96-6.74L67.31,74.31z M82.43,27.25l-2.84,12.23l9.27,9.23l5.86-3.77
	c-0.72-6.4-2.78-12.39-5.89-17.69H82.43z M20.42,39.48l-2.85-12.23h-6.4c-3.11,5.3-5.17,11.29-5.89,17.69l5.86,3.77L20.42,39.48z
	 M32.69,74.31l-14.47-1.29l-1.96,6.74c4.26,4.83,9.54,8.73,15.5,11.38l5.98-3.69L32.69,74.31z M50,91.95
	c-5.54,0-10.55-1.52-10.55-1.52l-2.2,2.72C41.29,94.35,45.57,95,50,95s8.71-0.65,12.76-1.85l-2.2-2.72
	C60.55,90.43,55.54,91.95,50,91.95z M89.9,62.96c-1.71,5.27-4.7,9.57-4.7,9.57l1.9,2.93c4.77-6.93,7.63-15.26,7.87-24.25l-3.25,1.25
	C91.72,52.46,91.61,57.69,89.9,62.96z M74.66,16.06c4.48,3.26,7.64,7.43,7.64,7.43l3.38-0.9c-5.24-6.81-12.38-12.07-20.63-15
	l0.19,3.5C65.23,11.09,70.18,12.8,74.66,16.06z M25.34,16.06c4.48-3.26,9.43-4.97,9.43-4.97l0.18-3.5
	c-8.25,2.93-15.39,8.19-20.63,15l3.37,0.9C17.7,23.49,20.86,19.32,25.34,16.06z M10.1,62.96c-1.71-5.27-1.82-10.5-1.82-10.5
	l-3.26-1.25c0.24,8.99,3.1,17.33,7.87,24.26l1.9-2.94C14.81,72.53,11.81,68.23,10.1,62.96z"/>
</svg>
